<svg width="6" height="9" viewBox="0 0 6 9" fill="none" xmlns="http://www.w3.org/2000/svg">
<path d="M0.812876 7.27403L3.64133 4.49627L0.812876 1.71851C0.745386 1.65223 0.69185 1.57354 0.655324 1.48694C0.618798 1.40034 0.599998 1.30752 0.599998 1.21379C0.599998 1.12005 0.618798 1.02723 0.655324 0.940631C0.69185 0.854031 0.745386 0.775344 0.812876 0.709063C0.880367 0.642782 0.96049 0.590205 1.04867 0.554334C1.13685 0.518463 1.23136 0.5 1.32681 0.5C1.42226 0.5 1.51677 0.518463 1.60495 0.554334C1.69313 0.590205 1.77325 0.642782 1.84074 0.709063L5.18677 3.99513C5.47107 4.27433 5.47107 4.72536 5.18677 5.00457L1.84074 8.29063C1.7733 8.357 1.69319 8.40966 1.60501 8.44558C1.51682 8.48151 1.42228 8.5 1.32681 8.5C1.23134 8.5 1.1368 8.48151 1.04861 8.44558C0.960424 8.40966 0.880317 8.357 0.812876 8.29063C0.535863 8.01143 0.528573 7.55324 0.812876 7.27403Z" fill="#CCCCCC"/>
</svg>
