<svg width="16" height="16" viewBox="0 0 16 16" fill="none" xmlns="http://www.w3.org/2000/svg">
<path d="M11.6689 13.2719L11.6688 13.2718L6.28909 7.99966L11.6688 2.72802L11.6688 2.72802C12.0302 2.37386 12.0302 1.79966 11.6689 1.44546C11.489 1.26807 11.2527 1.18003 11.0172 1.18003C10.7817 1.18003 10.5456 1.2681 10.3648 1.44474L10.3647 1.44484L4.33058 7.35852L11.6689 13.2719ZM11.6689 13.2719C12.0301 13.6265 12.0303 14.2015 11.6688 14.5553M11.6689 13.2719L11.6688 14.5553M11.5988 1.51677C11.9202 1.83175 11.9202 2.34161 11.5988 2.6566L6.21766 7.92965L11.5988 1.51677ZM11.5988 1.51677C11.4386 1.35878 11.2279 1.28003 11.0172 1.28003C10.8065 1.28003 10.5959 1.35876 10.4347 1.51626L11.5988 1.51677ZM11.6688 14.5553C11.3085 14.9083 10.7249 14.9083 10.3647 14.5552L4.33052 8.64123L4.33047 8.64118C3.96972 8.28709 3.96954 7.71184 4.33052 7.35858L11.6688 14.5553Z" fill="white" stroke="white" stroke-width="0.2"/>
</svg>

