<svg width="24" height="24" viewBox="0 0 24 24" fill="none" xmlns="http://www.w3.org/2000/svg">
<path d="M12.0413 3.05176C8.46372 3.05176 5.44875 5.53096 4.47823 8.91746C3.61049 9.44002 3.10312 10.4465 3.10312 11.6247C3.10312 13.3333 4.14476 14.7187 5.85333 14.7187C6.23355 14.7187 6.54088 14.4114 6.54088 14.0312V9.21827C6.54088 8.90199 6.31639 8.65376 6.0252 8.57368C7.02909 6.10954 9.34647 4.38389 12.0413 4.38389C14.7361 4.38389 17.0535 6.10954 18.0574 8.57368C17.7662 8.65376 17.5417 8.90199 17.5417 9.21827V14.0312C17.5417 14.4114 17.8491 14.7187 18.2293 14.7187C18.3892 14.7187 18.5325 14.6991 18.6805 14.6757C18.4581 15.9587 17.9193 16.9147 17.3698 17.5763C17.0271 17.989 16.6757 18.288 16.403 18.4787C16.2666 18.5741 16.1605 18.6334 16.0807 18.6721C16.0407 18.6915 16.0081 18.7092 15.9947 18.7151H14.7056C14.458 17.9972 13.67 17.4689 12.7289 17.4689C11.5897 17.4689 10.6662 18.2385 10.6662 19.1878C10.6662 20.1371 11.5897 20.9067 12.7289 20.9067C13.67 20.9067 14.458 20.3784 14.7056 19.6605H16.0592C16.2916 19.6605 16.3507 19.5987 16.4889 19.5316C16.6271 19.4645 16.7895 19.3726 16.9616 19.2523C17.3058 19.0116 17.7211 18.6605 18.1219 18.178C18.8467 17.3052 19.5217 16.0085 19.6903 14.2675C20.501 13.7294 20.9795 12.7606 20.9795 11.6247C20.9795 10.4465 20.4721 9.44002 19.6044 8.91749C18.6339 5.53096 15.6189 3.05176 12.0413 3.05176Z" fill="#333333"/>
</svg>
