<svg width="18" height="18" viewBox="0 0 18 18" fill="none" xmlns="http://www.w3.org/2000/svg">
<path d="M9 1.25C4.71979 1.25 1.25 4.71979 1.25 9V13C1.25 15.0711 2.92893 16.75 5 16.75H9C13.2802 16.75 16.75 13.2802 16.75 9C16.75 4.71979 13.2802 1.25 9 1.25Z" fill="#FF4A4A" stroke="white" stroke-width="1.5"></path>
<path d="M9.11195 5.22C9.80195 5.22 10.372 5.42 10.822 5.82C11.262 6.22 11.482 6.73 11.482 7.37C11.482 7.99 11.242 8.55 10.782 9.06C10.502 9.36 10.002 9.74 9.30195 10.21C8.57195 10.69 8.13195 11.11 7.97195 11.47H11.492V12.5H6.51195C6.51195 11.77 6.74195 11.14 7.22195 10.6C7.48195 10.3 8.03195 9.86 8.86195 9.29C9.32195 8.97 9.64195 8.7 9.84195 8.49C10.152 8.14 10.312 7.76 10.312 7.36C10.312 6.97 10.202 6.68 10.002 6.49C9.79195 6.3 9.48195 6.21 9.07195 6.21C8.63195 6.21 8.30195 6.36 8.08195 6.66C7.86195 6.94 7.74195 7.37 7.72195 7.93H6.55195C6.56195 7.13 6.79195 6.49 7.25195 6C7.72195 5.48 8.34195 5.22 9.11195 5.22Z" fill="white"></path>
</svg>
