<svg width="6" height="10" viewBox="0 0 6 10" fill="none" xmlns="http://www.w3.org/2000/svg">
<path d="M5.7339 8.46754L2.19834 4.99534L5.7339 1.52313C5.81827 1.44028 5.88519 1.34192 5.93084 1.23367C5.9765 1.12542 6 1.0094 6 0.892231C6 0.775062 5.9765 0.65904 5.93084 0.550789C5.88519 0.442539 5.81827 0.34418 5.7339 0.261329C5.64954 0.178477 5.54939 0.112756 5.43916 0.0679172C5.32893 0.0230784 5.21079 -8.72979e-10 5.09149 0C4.97218 8.72982e-10 4.85404 0.0230784 4.74381 0.0679172C4.63359 0.112756 4.53343 0.178477 4.44907 0.261329L0.266534 4.36891C-0.0888448 4.71792 -0.0888448 5.2817 0.266534 5.63071L4.44907 9.73829C4.53337 9.82125 4.63351 9.88707 4.74374 9.93198C4.85397 9.97688 4.97214 10 5.09149 10C5.21083 10 5.329 9.97688 5.43923 9.93198C5.54947 9.88707 5.6496 9.82125 5.7339 9.73829C6.08017 9.38928 6.08928 8.81655 5.7339 8.46754Z" fill="white"></path>
</svg>
