<svg width="39" height="33" viewBox="0 0 39 33" fill="none" xmlns="http://www.w3.org/2000/svg">
<rect y="6.99902" width="26" height="26" rx="13" fill="url('#paint0_linear_1648_138')"></rect>
<g clip-path="url('#clip0_1648_138')">
<path d="M10.1792 27.0899C10.7726 27.0899 11.2536 26.5992 11.2536 25.9939C11.2536 25.3885 10.7726 24.8978 10.1792 24.8978C9.58586 24.8978 9.10485 25.3885 9.10485 25.9939C9.10485 26.5992 9.58586 27.0899 10.1792 27.0899Z" fill="white"></path>
<path d="M16.4103 27.0899C17.0037 27.0899 17.4847 26.5992 17.4847 25.9939C17.4847 25.3885 17.0037 24.8978 16.4103 24.8978C15.817 24.8978 15.3359 25.3885 15.3359 25.9939C15.3359 26.5992 15.817 27.0899 16.4103 27.0899Z" fill="white"></path>
<path d="M19.0324 16.7433C18.9894 16.5899 18.9249 16.3926 18.796 16.2391L18.7315 16.1734C18.7101 16.1514 18.6671 16.1295 18.6026 16.0857C18.4522 15.998 18.3018 15.9542 18.1299 15.9542H8.91171L8.69684 14.6608C8.65386 14.3539 8.52493 14.069 8.31006 13.8498C8.09518 13.6306 7.81584 13.5429 7.5365 13.521H5.8175C5.60262 13.521 5.38774 13.6306 5.21584 13.8059C5.17287 13.8717 5.15138 13.9155 5.1084 13.9813C5.08692 14.069 5.06543 14.1567 5.06543 14.2663C5.06543 14.3539 5.08692 14.4635 5.1084 14.5074C5.12989 14.5731 5.17287 14.6608 5.21584 14.7047C5.36626 14.88 5.58113 14.9677 5.79601 14.9677H7.5365L7.66543 15.998C7.75138 16.6995 7.88031 17.6421 8.00923 18.5847C8.13816 19.5273 8.26708 20.4918 8.35303 21.2371C8.39601 21.6097 8.43898 21.9166 8.48196 22.1578C8.52493 22.4866 8.54642 22.5523 8.54642 22.5743C8.63237 22.9031 8.7613 23.1442 8.97617 23.3634C9.19105 23.5826 9.55634 23.7141 9.9646 23.7141H17.0985C17.4638 23.7141 17.8076 23.5826 18.0225 23.3634C18.1299 23.2538 18.2588 23.1003 18.3448 22.9688C18.3877 22.9031 18.4307 22.8154 18.4522 22.7715C18.4952 22.6839 18.4952 22.6181 18.5167 22.5743L19.0324 17.3352V17.2694C19.0324 17.2036 19.0539 17.1379 19.0539 17.0721C19.0753 16.9187 19.0539 16.831 19.0324 16.7433ZM17.2059 22.4866C17.1844 22.5085 17.1415 22.5304 17.0985 22.5304H9.94312C9.90014 22.5304 9.85717 22.5085 9.83568 22.4866C9.7927 22.4427 9.77122 22.3989 9.77122 22.3331L9.08361 17.1598H17.8291L17.2704 22.3331C17.2704 22.3989 17.2489 22.4427 17.2059 22.4866Z" fill="white"></path>
</g>
<path d="M24 1.24902C19.7198 1.24902 16.25 4.71882 16.25 8.99902V12.999C16.25 15.0701 17.9289 16.749 20 16.749H30C34.2802 16.749 37.75 13.2792 37.75 8.99902C37.75 4.71882 34.2802 1.24902 30 1.24902H24Z" fill="#FF4A4A" stroke="white" stroke-width="1.5"></path>
<path d="M23.92 5.21902C24.79 5.21902 25.46 5.52902 25.92 6.15902C26.38 6.77902 26.61 7.62902 26.61 8.72902C26.61 9.88902 26.36 10.839 25.88 11.559C25.39 12.279 24.73 12.639 23.91 12.639C22.5 12.639 21.71 11.989 21.54 10.689H22.68C22.82 11.349 23.23 11.679 23.92 11.679C24.39 11.679 24.77 11.439 25.06 10.979C25.33 10.539 25.47 9.98902 25.47 9.32902V9.23902H25.42C25.21 9.52902 24.96 9.74902 24.67 9.88902C24.39 10.019 24.07 10.089 23.71 10.089C23.01 10.089 22.44 9.85902 22.02 9.39902C21.6 8.95902 21.4 8.38902 21.4 7.68902C21.4 6.96902 21.64 6.37902 22.12 5.91902C22.6 5.44902 23.2 5.21902 23.92 5.21902ZM23.96 6.18902C23.54 6.18902 23.2 6.32902 22.94 6.60902C22.68 6.88902 22.56 7.24902 22.56 7.68902C22.56 8.12902 22.68 8.47902 22.94 8.73902C23.18 8.99902 23.52 9.13902 23.96 9.13902C24.39 9.13902 24.73 8.99902 24.98 8.73902C25.22 8.46902 25.35 8.10902 25.35 7.64902C25.35 7.18902 25.22 6.83902 24.96 6.57902C24.7 6.31902 24.36 6.18902 23.96 6.18902ZM29.9161 5.21902C30.7861 5.21902 31.4561 5.52902 31.9161 6.15902C32.3761 6.77902 32.6061 7.62902 32.6061 8.72902C32.6061 9.88902 32.3561 10.839 31.8761 11.559C31.3861 12.279 30.7261 12.639 29.9061 12.639C28.4961 12.639 27.7061 11.989 27.5361 10.689H28.6761C28.8161 11.349 29.2261 11.679 29.9161 11.679C30.3861 11.679 30.7661 11.439 31.0561 10.979C31.3261 10.539 31.4661 9.98902 31.4661 9.32902V9.23902H31.4161C31.2061 9.52902 30.9561 9.74902 30.6661 9.88902C30.3861 10.019 30.0661 10.089 29.7061 10.089C29.0061 10.089 28.4361 9.85902 28.0161 9.39902C27.5961 8.95902 27.3961 8.38902 27.3961 7.68902C27.3961 6.96902 27.6361 6.37902 28.1161 5.91902C28.5961 5.44902 29.1961 5.21902 29.9161 5.21902ZM29.9561 6.18902C29.5361 6.18902 29.1961 6.32902 28.9361 6.60902C28.6761 6.88902 28.5561 7.24902 28.5561 7.68902C28.5561 8.12902 28.6761 8.47902 28.9361 8.73902C29.1761 8.99902 29.5161 9.13902 29.9561 9.13902C30.3861 9.13902 30.7261 8.99902 30.9761 8.73902C31.2161 8.46902 31.3461 8.10902 31.3461 7.64902C31.3461 7.18902 31.2161 6.83902 30.9561 6.57902C30.6961 6.31902 30.3561 6.18902 29.9561 6.18902Z" fill="white"></path>
<defs>
<linearGradient id="paint0_linear_1648_138" x1="-3.1875" y1="8.42238" x2="31.5915" y2="20.6051" gradientUnits="userSpaceOnUse">
<stop stop-color="#FDAF17"></stop>
<stop offset="1" stop-color="#FB561C"></stop>
</linearGradient>
<clipPath id="clip0_1648_138">
<rect width="14.1818" height="13.5909" fill="white" transform="translate(5.02273 13.499)"></rect>
</clipPath>
</defs>
</svg>
